<svg width="36" height="35" viewBox="0 0 36 35" fill="none" xmlns="http://www.w3.org/2000/svg">
<path d="M17.2359 -3.38773e-05C20.7127 -0.0777342 24.1339 0.882208 27.0627 2.75729C29.9916 4.63237 32.2952 7.33759 33.6799 10.5277C35.0646 13.7178 35.4675 17.248 34.837 20.6681C34.2066 24.0881 32.5715 27.2427 30.1404 29.7294C27.7092 32.2161 24.5924 33.9221 21.1875 34.6296C17.7826 35.3371 14.244 35.0141 11.0234 33.7019C7.80287 32.3896 5.04634 30.1476 3.10557 27.2619C1.1648 24.3761 0.127802 20.9776 0.126933 17.5C0.075721 12.9107 1.84942 8.48905 5.05784 5.2073C8.26627 1.92556 12.6467 0.0524489 17.2359 -3.38773e-05V-3.38773e-05Z" fill="#29ABE2"/>
<path d="M10 22.341C11.1327 22.341 12.051 21.4017 12.051 20.243C12.051 19.0843 11.1327 18.145 10 18.145C8.86726 18.145 7.949 19.0843 7.949 20.243C7.949 21.4017 8.86726 22.341 10 22.341Z" fill="white"/>
<path d="M24.474 22.341C25.6067 22.341 26.525 21.4017 26.525 20.243C26.525 19.0843 25.6067 18.145 24.474 18.145C23.3413 18.145 22.423 19.0843 22.423 20.243C22.423 21.4017 23.3413 22.341 24.474 22.341Z" fill="white"/>
<path d="M26.846 27.617C26.8471 27.9332 26.785 28.2464 26.6634 28.5383C26.5417 28.8301 26.3631 29.0948 26.1378 29.3166C25.9126 29.5385 25.6452 29.7131 25.3515 29.8302C25.0578 29.9473 24.7436 30.0046 24.4275 29.9987C24.1114 29.9927 23.7996 29.9237 23.5105 29.7957C23.2214 29.6676 22.9609 29.4831 22.744 29.2529C22.5272 29.0228 22.3585 28.7517 22.248 28.4555C22.1374 28.1592 22.0871 27.8439 22.1 27.528C22.127 26.186 24.569 22.892 24.569 22.892C24.569 22.892 26.874 26.273 26.846 27.617Z" fill="white"/>
<path d="M20.439 28.228C20.3217 28.2281 20.2057 28.2035 20.0983 28.156C19.991 28.1085 19.8948 28.039 19.816 27.952C19.4991 27.5765 19.1041 27.2747 18.6585 27.0677C18.2129 26.8606 17.7274 26.7534 17.236 26.7534C16.7447 26.7534 16.2593 26.8606 15.8137 27.0677C15.3681 27.2747 14.973 27.5765 14.6561 27.952C14.5806 28.0359 14.4888 28.1037 14.3864 28.1512C14.2841 28.1988 14.1732 28.2252 14.0604 28.2288C13.9476 28.2324 13.8352 28.2133 13.7299 28.1724C13.6247 28.1315 13.5289 28.0698 13.4481 27.991C13.2822 27.8306 13.1854 27.6119 13.1783 27.3812C13.1712 27.1506 13.2543 26.9263 13.41 26.756C13.8854 26.2097 14.4717 25.7709 15.1298 25.4689C15.788 25.1668 16.5029 25.0083 17.227 25.004C17.9531 25.0116 18.6695 25.1715 19.3299 25.4733C19.9903 25.775 20.58 26.212 21.061 26.756C21.2163 26.9265 21.2992 27.1507 21.2921 27.3812C21.285 27.6117 21.1885 27.8304 21.023 27.991C20.8667 28.1431 20.6572 28.2281 20.439 28.228V28.228Z" fill="white"/>
</svg>
