<svg width="35" height="35" viewBox="0 0 35 35" fill="none" xmlns="http://www.w3.org/2000/svg">
<path d="M17.109 -3.38773e-05C20.5857 -0.0777342 24.0068 0.882208 26.9356 2.75729C29.8645 4.63237 32.1683 7.33759 33.5529 10.5277C34.9376 13.7178 35.3405 17.248 34.71 20.6681C34.0796 24.0881 32.4445 27.2427 30.0134 29.7294C27.5823 32.2161 24.4653 33.9221 21.0604 34.6296C17.6555 35.3371 14.117 35.0141 10.8964 33.7019C7.6759 32.3896 4.91938 30.1476 2.9786 27.2619C1.03783 24.3761 0.000833201 20.9776 -3.49298e-05 17.5C-0.0512474 12.9107 1.72245 8.48905 4.93087 5.2073C8.1393 1.92556 12.5197 0.0524489 17.109 -3.38773e-05V-3.38773e-05Z" fill="#1094E6"/>
<path d="M24.6499 17.708C24.5029 17.5409 24.4219 17.326 24.4219 17.1035C24.4219 16.8809 24.5029 16.666 24.6499 16.499C25.0071 16.0886 25.1905 15.5553 25.1612 15.0121C25.1319 14.469 24.8922 13.9585 24.493 13.589C24.1606 13.2821 23.7334 13.0979 23.282 13.067C20.303 13.037 20.914 13.067 16.806 13.067C18.1455 10.8945 18.8606 8.39511 18.873 5.84296C18.893 5.24868 18.6803 4.67008 18.2801 4.23029C17.8799 3.7905 17.3239 3.52426 16.7304 3.48829C16.1369 3.45231 15.5527 3.64942 15.1023 4.03766C14.652 4.42591 14.3709 4.97461 14.319 5.56696C11.949 15.444 6.83904 13.524 6.83904 20.482C6.83904 26.509 9.57701 27.982 15.46 27.982L22.06 28.003C22.2695 28.0118 22.4788 27.9792 22.6757 27.907C22.8726 27.8349 23.0534 27.7246 23.2076 27.5825C23.3618 27.4403 23.4864 27.2692 23.5744 27.0788C23.6623 26.8884 23.7118 26.6825 23.72 26.473C23.734 26.1843 23.6719 25.8971 23.54 25.64C23.4512 25.4678 23.4227 25.2708 23.4589 25.0805C23.4952 24.8902 23.5942 24.7175 23.74 24.59C24.0673 24.2785 24.2918 23.8746 24.3835 23.4321C24.4751 22.9897 24.4296 22.5298 24.253 22.114C24.1659 21.9414 24.1384 21.7449 24.1746 21.555C24.2108 21.3651 24.3087 21.1925 24.453 21.064C24.9034 20.6327 25.174 20.0472 25.2105 19.4247C25.247 18.8022 25.0468 18.1889 24.6499 17.708Z" fill="white"/>
</svg>
