<svg width="36" height="35" viewBox="0 0 36 35" fill="none" xmlns="http://www.w3.org/2000/svg">
<path d="M17.1399 -3.38773e-05C20.6167 -0.0777342 24.0379 0.882208 26.9667 2.75729C29.8956 4.63237 32.1992 7.33759 33.5839 10.5277C34.9686 13.7178 35.3715 17.248 34.741 20.6681C34.1106 24.0881 32.4755 27.2427 30.0444 29.7294C27.6132 32.2161 24.4964 33.9221 21.0915 34.6296C17.6866 35.3371 14.1481 35.0141 10.9275 33.7019C7.70699 32.3896 4.95035 30.1476 3.00957 27.2619C1.0688 24.3761 0.0318045 20.9776 0.0309363 17.5C-0.0205421 12.9106 1.753 8.4888 4.96148 5.207C8.16996 1.92519 12.5506 0.0521847 17.1399 -3.38773e-05Z" fill="url(#paint0_linear)"/>
<path d="M17.1321 24.087C16.4079 24.0915 15.6928 24.25 15.0347 24.5523C14.3765 24.8546 13.7904 25.2936 13.3151 25.84C13.1596 26.0104 13.0765 26.2346 13.0836 26.4652C13.0907 26.6958 13.1874 26.9145 13.3531 27.075C13.4339 27.1536 13.5298 27.2152 13.6349 27.256C13.7401 27.2968 13.8524 27.316 13.9651 27.3124C14.0778 27.3089 14.1888 27.2827 14.2912 27.2353C14.3935 27.188 14.4853 27.1205 14.5611 27.037C14.8777 26.661 15.2726 26.3588 15.7183 26.1515C16.1639 25.9442 16.6495 25.8367 17.141 25.8367C17.6325 25.8367 18.1182 25.9442 18.5639 26.1515C19.0095 26.3588 19.4045 26.661 19.7211 27.037C19.7969 27.1207 19.8889 27.1883 19.9915 27.2358C20.094 27.2832 20.2051 27.3095 20.318 27.313C20.431 27.3166 20.5434 27.2973 20.6487 27.2564C20.754 27.2155 20.8501 27.1538 20.9311 27.075C21.0965 26.9144 21.193 26.6957 21.2001 26.4652C21.2072 26.2347 21.1243 26.0105 20.969 25.84C20.4879 25.2954 19.8977 24.8579 19.2367 24.556C18.5757 24.254 17.8588 24.0943 17.1321 24.087V24.087Z" fill="white"/>
<path d="M28.686 14.561L27.305 13.527C26.6152 14.5921 25.6159 15.4205 24.4414 15.9011C23.267 16.3816 21.9736 16.4912 20.735 16.215L20.182 17.871C20.7785 18.0744 21.4048 18.1758 22.035 18.171C22.235 18.171 22.442 18.152 22.649 18.133C22.4385 18.4695 22.3267 18.8582 22.326 19.255C22.3174 19.5296 22.3641 19.8031 22.4633 20.0593C22.5625 20.3155 22.712 20.5492 22.9032 20.7465C23.0944 20.9438 23.3233 21.1006 23.5763 21.2078C23.8293 21.3149 24.1013 21.3701 24.376 21.3701C24.6507 21.3701 24.9227 21.3149 25.1757 21.2078C25.4287 21.1006 25.6576 20.9438 25.8488 20.7465C26.04 20.5492 26.1896 20.3155 26.2887 20.0593C26.3879 19.8031 26.4345 19.5296 26.4259 19.255C26.4263 18.8733 26.3226 18.4986 26.126 18.1714C25.9294 17.8442 25.6472 17.5769 25.31 17.398C26.6597 16.757 27.8221 15.7802 28.686 14.561V14.561Z" fill="white"/>
<path d="M13.402 17.87L12.849 16.214C11.6104 16.4898 10.3171 16.3801 9.14269 15.8997C7.96828 15.4192 6.96906 14.5909 6.27905 13.526L4.89794 14.56C5.84868 15.9015 7.16101 16.9454 8.682 17.57C8.42351 17.7667 8.21397 18.0206 8.06982 18.3116C7.92566 18.6027 7.85074 18.9232 7.85094 19.248C7.84237 19.5226 7.88911 19.7962 7.98827 20.0524C8.08744 20.3086 8.23701 20.5422 8.42822 20.7395C8.61942 20.9368 8.84832 21.0936 9.10131 21.2007C9.3543 21.3079 9.62626 21.363 9.90099 21.363C10.1757 21.363 10.4477 21.3079 10.7007 21.2007C10.9537 21.0936 11.1826 20.9368 11.3738 20.7395C11.565 20.5422 11.7146 20.3086 11.8137 20.0524C11.9129 19.7962 11.9596 19.5226 11.951 19.248C11.9503 18.8629 11.8445 18.4854 11.645 18.156C12.2422 18.1553 12.8354 18.0587 13.402 17.87V17.87Z" fill="white"/>
<defs>
<linearGradient id="paint0_linear" x1="17.5304" y1="-0.00440407" x2="17.5304" y2="34.9956" gradientUnits="userSpaceOnUse">
<stop offset="0.209" stop-color="#ED1C24"/>
<stop offset="1" stop-color="#EDFF89"/>
</linearGradient>
</defs>
</svg>
