<svg width="35" height="35" viewBox="0 0 35 35" fill="none" xmlns="http://www.w3.org/2000/svg">
<path d="M17.5 -9.53674e-06C20.9612 -9.53674e-06 24.3447 1.02635 27.2225 2.94927C30.1004 4.8722 32.3433 7.60532 33.6678 10.803C34.9924 14.0007 35.3389 17.5194 34.6637 20.9141C33.9885 24.3087 32.3218 27.427 29.8744 29.8744C27.427 32.3218 24.3087 33.9885 20.9141 34.6637C17.5194 35.339 14.0008 34.9924 10.8031 33.6679C7.60539 32.3434 4.87226 30.1003 2.94934 27.2225C1.02641 24.3446 -3.8147e-06 20.9612 -3.8147e-06 17.5C-3.8147e-06 12.8587 1.84372 8.40755 5.12561 5.12566C8.40749 1.84378 12.8587 -9.53674e-06 17.5 -9.53674e-06V-9.53674e-06Z" fill="#8CC63F"/>
<path d="M8.63509 17.92C8.47774 17.9206 8.32227 17.9547 8.17903 18.0198C8.03579 18.0849 7.90798 18.1796 7.80403 18.2977C7.70008 18.4158 7.62237 18.5547 7.576 18.705C7.52964 18.8554 7.51562 19.0138 7.53499 19.17C7.84028 21.5974 9.02119 23.8299 10.8559 25.4483C12.6906 27.0667 15.0531 27.9598 17.4996 27.9598C19.9461 27.9598 22.3084 27.0667 24.1431 25.4483C25.9779 23.8299 27.1588 21.5974 27.4641 19.17C27.4836 19.0138 27.4697 18.8553 27.4234 18.7048C27.3771 18.5544 27.2994 18.4155 27.1954 18.2974C27.0914 18.1792 26.9636 18.0845 26.8203 18.0194C26.6769 17.9544 26.5215 17.9205 26.3641 17.92H8.63509Z" fill="white"/>
<path d="M28.3251 12.269L24.849 11.728L27.6391 10.41C27.7431 10.3608 27.8363 10.2916 27.9136 10.2064C27.9909 10.1212 28.0506 10.0216 28.0894 9.91324C28.1281 9.80492 28.1452 9.69002 28.1395 9.5751C28.1339 9.46019 28.1057 9.34751 28.0565 9.2435C28.0074 9.13949 27.9382 9.04623 27.8529 8.96896C27.7677 8.8917 27.6681 8.83195 27.5598 8.79318C27.4515 8.75442 27.3366 8.73738 27.2217 8.74301C27.1068 8.74865 26.994 8.77684 26.89 8.82602L21.525 11.362C21.499 11.374 21.483 11.399 21.458 11.413C21.4068 11.4436 21.3589 11.4794 21.3151 11.52C21.2758 11.5548 21.2399 11.5933 21.208 11.635C21.1743 11.6809 21.1456 11.7302 21.1221 11.782C21.0966 11.8327 21.0768 11.886 21.063 11.941C21.052 11.9661 21.0427 11.9918 21.035 12.018C21.0332 12.046 21.0332 12.0741 21.035 12.102C21.0321 12.1604 21.0344 12.219 21.042 12.277C21.0506 12.3349 21.0647 12.3918 21.084 12.447C21.094 12.473 21.093 12.501 21.105 12.527C21.1227 12.5596 21.1432 12.5908 21.166 12.62C21.1802 12.6453 21.1959 12.6696 21.213 12.693C21.2742 12.7719 21.3486 12.8396 21.433 12.893H21.4401C21.5278 12.942 21.6231 12.9758 21.7221 12.993C21.735 12.9969 21.7477 13.0015 21.76 13.007L28.0501 13.985C28.0951 13.9917 28.1405 13.995 28.186 13.995C28.4069 13.9958 28.62 13.913 28.7824 13.7633C28.9448 13.6135 29.0445 13.4079 29.0615 13.1877C29.0786 12.9675 29.0118 12.749 28.8744 12.576C28.7371 12.403 28.5394 12.2883 28.3211 12.255L28.3251 12.269Z" fill="white"/>
<path d="M13.963 12.103C13.963 12.075 13.97 12.049 13.963 12.021C13.956 11.993 13.9419 11.972 13.9349 11.944C13.9198 11.8872 13.8995 11.832 13.874 11.779C13.8507 11.7301 13.8233 11.6833 13.792 11.639C13.7575 11.5943 13.7187 11.553 13.676 11.516C13.6356 11.4777 13.5909 11.4442 13.543 11.416C13.517 11.4 13.499 11.376 13.471 11.362L8.10597 8.82604C7.89591 8.72671 7.65505 8.71484 7.43629 8.79314C7.21753 8.87144 7.03879 9.03347 6.93946 9.24352C6.84014 9.45357 6.82833 9.69443 6.90663 9.9132C6.98492 10.132 7.14689 10.3107 7.35694 10.41L10.147 11.728L6.67298 12.269C6.4548 12.3023 6.25721 12.4167 6.11988 12.5895C5.98255 12.7623 5.91556 12.9806 5.93238 13.2007C5.9492 13.4207 6.04858 13.6263 6.21058 13.7762C6.37258 13.9261 6.58533 14.0093 6.80604 14.009C6.85123 14.0091 6.89624 14.0057 6.94093 13.999L13.2319 13.021C13.2446 13.0155 13.2577 13.0109 13.271 13.007C13.3685 12.9889 13.4623 12.9552 13.549 12.907L13.559 12.902C13.6433 12.8486 13.7177 12.7809 13.7789 12.702C13.7969 12.679 13.81 12.655 13.828 12.629C13.846 12.603 13.8719 12.571 13.8889 12.536C13.8973 12.5099 13.9037 12.4831 13.908 12.456C13.9283 12.4011 13.9424 12.3441 13.95 12.286C13.961 12.2257 13.9654 12.1643 13.963 12.103V12.103Z" fill="white"/>
<path d="M33.6959 16.339C34.0194 16.896 34.1084 17.5586 33.9433 18.1811C33.7781 18.8036 33.3724 19.335 32.8154 19.6585C32.2585 19.9819 31.5959 20.0709 30.9734 19.9057C30.3509 19.7406 29.8194 19.3349 29.496 18.778C28.824 17.614 29.2529 13.505 29.2529 13.505C29.2529 13.505 33.0239 15.177 33.6959 16.339Z" fill="white"/>
</svg>
