<svg width="36" height="35" viewBox="0 0 36 35" fill="none" xmlns="http://www.w3.org/2000/svg">
<path d="M17.578 -3.38773e-05C21.0548 -0.0777342 24.4758 0.882208 27.4046 2.75729C30.3335 4.63237 32.6373 7.33759 34.022 10.5277C35.4066 13.7178 35.8095 17.248 35.1791 20.6681C34.5486 24.0881 32.9135 27.2427 30.4824 29.7294C28.0513 32.2161 24.9343 33.9221 21.5294 34.6296C18.1245 35.3371 14.586 35.0141 11.3655 33.7019C8.14491 32.3896 5.38838 30.1476 3.44761 27.2619C1.50684 24.3761 0.469843 20.9776 0.468974 17.5C0.417762 12.9107 2.19146 8.48905 5.39988 5.2073C8.60831 1.92556 12.9887 0.0524489 17.578 -3.38773e-05V-3.38773e-05Z" fill="#FBB03B"/>
<path d="M17.577 30.511C20.1959 30.511 22.319 27.9872 22.319 24.874C22.319 21.7608 20.1959 19.237 17.577 19.237C14.9581 19.237 12.835 21.7608 12.835 24.874C12.835 27.9872 14.9581 30.511 17.577 30.511Z" fill="white"/>
<path d="M10.34 17.359C9.74931 17.3721 9.16822 17.2089 8.67068 16.8903C8.17315 16.5716 7.7818 16.112 7.54666 15.57C7.31151 15.0279 7.24314 14.4281 7.35037 13.8471C7.4576 13.2661 7.73558 12.7303 8.14871 12.3079C8.56184 11.8855 9.09145 11.5958 9.66995 11.4757C10.2485 11.3557 10.8496 11.4108 11.3966 11.6339C11.9437 11.857 12.412 12.238 12.7416 12.7284C13.0712 13.2187 13.2472 13.7962 13.2471 14.387C13.2551 15.1664 12.9534 15.9172 12.4084 16.4744C11.8633 17.0316 11.1194 17.3497 10.34 17.359V17.359ZM10.34 13.164C10.0972 13.1595 9.85857 13.2273 9.65445 13.3588C9.45032 13.4904 9.28998 13.6798 9.19388 13.9028C9.09777 14.1258 9.07021 14.3724 9.11477 14.6112C9.15933 14.8499 9.27403 15.07 9.44412 15.2433C9.61421 15.4167 9.83201 15.5355 10.0699 15.5846C10.3077 15.6336 10.5548 15.6108 10.7796 15.5189C11.0044 15.4271 11.1968 15.2704 11.3322 15.0688C11.4676 14.8672 11.54 14.6298 11.5401 14.387C11.5415 14.2279 11.5116 14.0702 11.4521 13.9227C11.3925 13.7753 11.3046 13.641 11.1931 13.5275C11.0817 13.414 10.949 13.3236 10.8026 13.2614C10.6563 13.1992 10.499 13.1664 10.34 13.165V13.164Z" fill="white"/>
<path d="M24.815 17.359C24.2242 17.3725 23.6428 17.2096 23.145 16.8912C22.6473 16.5729 22.2556 16.1133 22.0202 15.5714C21.7847 15.0294 21.7161 14.4295 21.8231 13.8484C21.9301 13.2673 22.2078 12.7312 22.6209 12.3087C23.0339 11.8861 23.5636 11.5962 24.1421 11.476C24.7207 11.3557 25.322 11.4106 25.8692 11.6337C26.4164 11.8567 26.8846 12.2378 27.2143 12.7282C27.5439 13.2186 27.72 13.7961 27.72 14.387C27.728 15.1661 27.4266 15.9165 26.882 16.4737C26.3374 17.0309 25.594 17.3492 24.815 17.359V17.359ZM24.815 13.164C24.5719 13.1582 24.3327 13.225 24.1278 13.3558C23.9229 13.4867 23.7616 13.6756 23.6646 13.8985C23.5675 14.1214 23.5392 14.3682 23.583 14.6073C23.6269 14.8464 23.7411 15.067 23.9109 15.241C24.0807 15.4149 24.2985 15.5343 24.5365 15.5839C24.7745 15.6335 25.0219 15.6111 25.2471 15.5194C25.4723 15.4278 25.665 15.2711 25.8007 15.0693C25.9364 14.8676 26.0089 14.6301 26.0089 14.387C26.0119 14.0668 25.888 13.7586 25.6642 13.5296C25.4405 13.3006 25.1351 13.1695 24.815 13.165V13.164Z" fill="white"/>
</svg>
