<?xml version="1.0" encoding="utf-8"?>
<!-- Generator: Adobe Illustrator 24.0.0, SVG Export Plug-In . SVG Version: 6.00 Build 0)  -->
<svg version="1.1" id="レイヤー_1" xmlns="http://www.w3.org/2000/svg" xmlns:xlink="http://www.w3.org/1999/xlink" x="0px"
	 y="0px" viewBox="0 0 39 52" style="enable-background:new 0 0 39 52;" xml:space="preserve">
<style type="text/css">
	.st0{fill:#DD7928;}
	.st1{fill:#2D9119;}
	.st2{fill:#F498B7;}
	.st3{fill:#E5005A;}
</style>
<path class="st0" d="M37.5,30.3h-36C0.7,30.3,0,31,0,31.8c0,4.2,3.4,7.6,7.5,7.6h24c4.1,0,7.5-3.4,7.5-7.5
	C39,31,38.3,30.3,37.5,30.3z"/>
<path class="st0" d="M31.5,36.3h-24c-1.9,0-3.6-1.2-4.2-2.9h32.4C35,35.2,33.3,36.3,31.5,36.3L31.5,36.3z"/>
<path class="st0" d="M1.5,15.4h35.9c0.8,0,1.5-0.7,1.5-1.5l0,0c0.1-7.5-6-13.5-13.4-13.5h-12C6,0.4,0,6.4,0,13.9
	C0,14.7,0.7,15.4,1.5,15.4L1.5,15.4z"/>
<path class="st0" d="M13.5,3.4h12c5.2,0,9.6,3.8,10.3,8.9H3.2C3.9,7.3,8.3,3.5,13.5,3.4z"/>
<path class="st1" d="M38.9,18.5c0.2,0.8-0.3,1.6-1.1,1.8l-9,2.1c-0.5,0.1-0.2,0.1-9.3-2l-8.6,2c-0.6,0.1-0.4,0-9.7-2.1
	c-0.8-0.2-1.3-1.1-1.1-1.9s1-1.3,1.8-1.1l8.6,2l8.6-2c0.6-0.1,0.2-0.1,9.3,2l8.6-2C37.9,17.1,38.7,17.7,38.9,18.5L38.9,18.5z"/>
<path class="st2" d="M39,25.9c0,0.8-0.7,1.5-1.5,1.5h-36c-0.8,0-1.5-0.7-1.5-1.6c0-0.8,0.7-1.5,1.5-1.5h35.9
	C38.3,24.4,39,25,39,25.9L39,25.9L39,25.9z"/>
<path class="st3" d="M10.1,51.6l0.8-3.9c0-0.3,0.1-0.5,0.1-0.6c0-0.4-0.1-0.7-0.3-0.9s-0.5-0.3-0.9-0.3S9,46.1,8.6,46.4
	c-0.3,0.3-0.5,0.8-0.7,1.4l-0.7,3.8H5.5l0.8-3.9c0-0.2,0-0.4,0-0.6c0-0.4-0.1-0.7-0.3-0.9c-0.2-0.2-0.5-0.3-0.8-0.3
	c-0.4,0-0.8,0.2-1.2,0.5c-0.3,0.3-0.5,0.8-0.7,1.4l-0.7,3.8H0.8l1.4-7h1.7l-0.1,0.7H4c0.2-0.3,0.5-0.6,0.9-0.7
	c0.4-0.2,0.8-0.3,1.2-0.3s0.8,0.1,1.1,0.3c0.3,0.2,0.6,0.5,0.7,0.9L8,45.7l0.1-0.2c0.3-0.4,0.6-0.7,1-0.9s0.9-0.3,1.4-0.3
	c0.7,0,1.3,0.2,1.6,0.6c0.4,0.4,0.6,0.9,0.6,1.7c0,0.3,0,0.6-0.1,0.8l-0.8,4.2H10.1z"/>
<path class="st3" d="M18.1,51.8c-1.2,0-2.1-0.3-2.8-0.9c-0.7-0.6-1-1.4-1-2.4c0-0.8,0.2-1.5,0.5-2.1s0.8-1.2,1.4-1.5
	c0.6-0.4,1.3-0.6,2.1-0.6c0.9,0,1.6,0.3,2.2,0.8c0.5,0.5,0.8,1.2,0.8,2.1c0,0.4-0.1,0.9-0.2,1.4H16v0.1c0,0.6,0.3,1,0.7,1.3
	c0.4,0.3,1,0.4,1.7,0.4c0.3,0,0.7,0,1.1-0.1c0.3-0.1,0.6-0.2,0.9-0.3v1.4c-0.3,0.1-0.6,0.2-1,0.3C19,51.7,18.6,51.8,18.1,51.8z
	 M18.2,45.6c-0.5,0-0.9,0.1-1.3,0.4c-0.4,0.3-0.6,0.7-0.8,1.2v0.1h3.5v-0.1c0-0.1,0-0.1,0-0.2c0-0.5-0.1-0.8-0.4-1.1
	C19,45.8,18.7,45.6,18.2,45.6z"/>
<path class="st3" d="M27.2,51.6l0.8-3.9c0-0.2,0.1-0.4,0.1-0.6c0-0.4-0.1-0.7-0.3-0.9c-0.2-0.2-0.5-0.3-0.8-0.3
	c-0.5,0-0.9,0.2-1.2,0.5c-0.3,0.3-0.5,0.8-0.7,1.4l-0.7,3.8h-1.8l1.4-7h1.7l-0.1,0.7l0.2,0.1c0.2-0.3,0.5-0.5,0.9-0.7
	s0.8-0.3,1.2-0.3c0.7,0,1.2,0.2,1.6,0.6c0.4,0.4,0.6,0.9,0.6,1.6c0,0.3,0,0.6-0.1,0.9l-1,4.1H27.2z"/>
<path class="st3" d="M34.6,51.8c-1,0-1.7-0.2-2.2-0.7c-0.5-0.4-0.7-1.1-0.7-1.9c0-0.3,0-0.6,0.1-0.9l0.7-3.7h1.8l-0.8,3.9
	c0,0.2-0.1,0.4-0.1,0.6c0,0.8,0.4,1.3,1.2,1.3c0.5,0,0.9-0.1,1.1-0.4c0.3-0.3,0.5-0.7,0.6-1.3l0.7-3.9h1.8l-0.8,4
	c-0.2,1.1-0.6,2-1.2,2.5C36.3,51.5,35.5,51.8,34.6,51.8z"/>
</svg>
