<svg xmlns="http://www.w3.org/2000/svg" width="45.079" height="53" viewBox="0 0 45.079 53">
  <g id="home2" transform="translate(-191 -137)">
    <g id="place" transform="translate(191 132.518)">
      <path id="パス_11" data-name="パス 11" d="M45.053,22.133A2.9,2.9,0,0,0,43.938,20.2l-8.291-6.384V7.4a2.919,2.919,0,1,0-5.838,0V9.316l-5.49-4.228a2.922,2.922,0,0,0-3.564,0L1.136,20.2A2.919,2.919,0,0,0,2.92,25.428a2.887,2.887,0,0,0,1.33-.319V40.3a2.924,2.924,0,0,0,2.92,2.921H20.286V29.428h4.494V43.215h12.93a2.923,2.923,0,0,0,2.919-2.921V25a2.92,2.92,0,0,0,4.423-2.865Zm-2.72.51a.217.217,0,0,1-.175.086.21.21,0,0,1-.133-.046l-4.093-3.151V40.3a.22.22,0,0,1-.22.221H27.481V26.729H17.587V40.517H7.17a.221.221,0,0,1-.219-.221V19.682l-3.9,3a.214.214,0,0,1-.133.046.219.219,0,0,1-.176-.086.219.219,0,0,1,.04-.307L22.406,7.229a.189.189,0,0,1,.268,0L32.51,14.8V7.4a.22.22,0,0,1,.441,0V15.14L42.3,22.335a.219.219,0,0,1,.037.308Z" fill="#221815"/>
    </g>
    <text id="TOP" transform="translate(202 188)" fill="#221815" font-size="10" font-family="Arial-BoldItalicMT, Arial" font-weight="700" font-style="italic" letter-spacing="0.1em"><tspan x="0" y="0">TOP</tspan></text>
  </g>
</svg>
