<svg xmlns="http://www.w3.org/2000/svg" width="42.422" height="40.128" viewBox="0 0 42.422 40.128">
  <g id="グループ_9868" data-name="グループ 9868" transform="translate(-974.902 -779.569)">
    <g id="グループ_9867" data-name="グループ 9867">
      <path id="パス_20026" data-name="パス 20026" d="M103.265,89.06a10.619,10.619,0,0,0,.168-1.283,16.139,16.139,0,0,0-.02-1.648c-.515-8.951-9.8-16.083-21.183-16.083-11.711,0-21.205,7.551-21.205,16.867,0,8.562,8.021,15.634,18.412,16.721a1.153,1.153,0,0,1,1.023,1.275l-.442,3.982a1.156,1.156,0,0,0,1.653,1.166c8.779-4.237,14.029-8.6,17.164-12.372.57-.687,2.431-3.293,2.81-3.978A14.2,14.2,0,0,0,103.265,89.06Z" transform="translate(913.877 709.523)" fill="#fff"/>
      <path id="パス_20027" data-name="パス 20027" d="M121.208,173.363v-7.1a1.085,1.085,0,0,0-1.085-1.085h0a1.085,1.085,0,0,0-1.085,1.085v8.189a1.085,1.085,0,0,0,1.085,1.085h4.339a1.085,1.085,0,0,0,1.085-1.085h0a1.085,1.085,0,0,0-1.085-1.085Z" transform="translate(863.239 626.489)" fill="#221815"/>
      <path id="パス_20028" data-name="パス 20028" d="M179.656,175.533h-.474a.848.848,0,0,1-.848-.848v-8.663a.848.848,0,0,1,.848-.848h.474a.848.848,0,0,1,.848.848v8.663A.848.848,0,0,1,179.656,175.533Z" transform="translate(811.482 626.489)" fill="#221815"/>
      <path id="パス_20029" data-name="パス 20029" d="M214.486,166.258v5s-4.332-5.65-4.4-5.724a1.08,1.08,0,0,0-.851-.362A1.114,1.114,0,0,0,208.2,166.3v8.145a1.085,1.085,0,0,0,1.085,1.085h0a1.085,1.085,0,0,0,1.085-1.085v-4.972s4.4,5.7,4.462,5.761a1.078,1.078,0,0,0,.734.3,1.125,1.125,0,0,0,1.095-1.13v-8.144a1.085,1.085,0,0,0-1.085-1.085h0A1.085,1.085,0,0,0,214.486,166.258Z" transform="translate(785.418 626.49)" fill="#221815"/>
      <path id="パス_20030" data-name="パス 20030" d="M294.046,166.259h0a1.085,1.085,0,0,0-1.085-1.085h-4.339a1.085,1.085,0,0,0-1.085,1.085v8.189a1.085,1.085,0,0,0,1.085,1.085h4.339a1.085,1.085,0,0,0,1.085-1.085h0a1.085,1.085,0,0,0-1.085-1.085h-3.254v-1.925h3.254a1.085,1.085,0,0,0,1.085-1.085h0a1.085,1.085,0,0,0-1.085-1.085h-3.254v-1.925h3.254A1.084,1.084,0,0,0,294.046,166.259Z" transform="translate(716.162 626.489)" fill="#221815"/>
    </g>
  </g>
</svg>
