<svg height="108.903" viewBox="0 0 350.477 108.903" width="350.477" xmlns="http://www.w3.org/2000/svg"><g fill="#221815"><path d="m237.646 251.186a29.974 29.974 0 0 1 -5.3 9.491 26.238 26.238 0 0 1 -8.286 6.611 23.1 23.1 0 0 1 -10.707 2.486 20.99 20.99 0 0 1 -8.4-1.582 17.662 17.662 0 0 1 -6.144-4.294 18.6 18.6 0 0 1 -3.775-6.271 22.08 22.08 0 0 1 -1.3-7.628 32.646 32.646 0 0 1 1.866-10.849 30.188 30.188 0 0 1 5.3-9.435 26.1 26.1 0 0 1 8.341-6.611 23.736 23.736 0 0 1 10.878-2.486 21.291 21.291 0 0 1 8.341 1.525 17.034 17.034 0 0 1 6.031 4.181 18.516 18.516 0 0 1 3.722 6.216 22.156 22.156 0 0 1 1.3 7.626 33.4 33.4 0 0 1 -1.867 11.02zm18.695-27.46a29.434 29.434 0 0 0 -7.695-10.622 35.107 35.107 0 0 0 -11.994-6.724 48.53 48.53 0 0 0 -15.616-2.373 46.423 46.423 0 0 0 -18.67 3.73 45.368 45.368 0 0 0 -14.878 10.282 47.312 47.312 0 0 0 -9.789 15.313 50.141 50.141 0 0 0 -3.507 18.815 35.045 35.045 0 0 0 2.716 14.069 29.654 29.654 0 0 0 7.751 10.679 35.166 35.166 0 0 0 12.051 6.779 48.134 48.134 0 0 0 15.5 2.373h44.921l2.716-15.028-17.045.338.113-.338a29.5 29.5 0 0 0 5.172-4.238 35.055 35.055 0 0 0 5.229-6.837 42.067 42.067 0 0 0 4.091-9.548 43.868 43.868 0 0 0 1.648-12.6 35.074 35.074 0 0 0 -2.714-14.07z" transform="translate(-174.192 -202.202)"/><path d="m362.248 206h-18.656l-22.492 50.74h-.32l-4.052-50.74h-18.336l-23.453 50.74h-.32l-2.239-50.74h-18.762l6.61 75.476h17.59l25.052-51.6h.32l5.117 51.6h17.693z" transform="translate(-121.362 -200.879)"/><path d="m328.336 240.761a13.753 13.753 0 0 1 4.264-6.824 15.566 15.566 0 0 1 4-2.5 12.671 12.671 0 0 1 5.17-1.012q4.688 0 7.2 2.345a7.7 7.7 0 0 1 2.5 5.863v1.067a5.5 5.5 0 0 1 -.107 1.066zm36.885 10.447a47.548 47.548 0 0 0 1.012-5.49 39.976 39.976 0 0 0 .375-4.851 25.15 25.15 0 0 0 -1.707-9.595 19.158 19.158 0 0 0 -4.8-6.984 21.044 21.044 0 0 0 -7.408-4.316 29.042 29.042 0 0 0 -9.541-1.494 32.5 32.5 0 0 0 -12.9 2.506 30.421 30.421 0 0 0 -10.074 6.875 31.966 31.966 0 0 0 -6.609 10.287 33.6 33.6 0 0 0 -2.4 12.74 24.588 24.588 0 0 0 2.027 10.234 21.458 21.458 0 0 0 5.543 7.515 23.672 23.672 0 0 0 8.261 4.587 33.056 33.056 0 0 0 10.287 1.545 37.689 37.689 0 0 0 13.538-2.4 30.6 30.6 0 0 0 11.408-7.836l-10.769-8.421a19.217 19.217 0 0 1 -5.543 4.051 16.234 16.234 0 0 1 -7.142 1.492 14.6 14.6 0 0 1 -4.318-.639 12.224 12.224 0 0 1 -3.732-1.867 9.688 9.688 0 0 1 -2.664-2.984 7.858 7.858 0 0 1 -1.012-4 3.94 3.94 0 0 1 .107-.959z" transform="translate(-83.079 -192.575)"/><path d="m392.288 260.7a16.859 16.859 0 0 1 -2.984 5.383 14.029 14.029 0 0 1 -4.637 3.623 13.718 13.718 0 0 1 -6.131 1.334 10.772 10.772 0 0 1 -8.207-3.145 11.208 11.208 0 0 1 -2.986-8.049 18.173 18.173 0 0 1 1.172-6.5 18.656 18.656 0 0 1 3.146-5.437 14.779 14.779 0 0 1 4.744-3.732 13.179 13.179 0 0 1 5.97-1.385q5.438 0 8.209 3.252a11.982 11.982 0 0 1 2.771 8.048 20.177 20.177 0 0 1 -1.067 6.608zm-21.108-23.45 6.289-34.327h-17.162l-14.179 80.594h15.777l1.279-7.568h.213a16.668 16.668 0 0 0 7.2 6.5 23.137 23.137 0 0 0 10.394 2.345 26.753 26.753 0 0 0 11.726-2.558 28.931 28.931 0 0 0 9.275-7.037 32.422 32.422 0 0 0 6.129-10.5 37.392 37.392 0 0 0 2.186-12.845 27.089 27.089 0 0 0 -1.494-9.115 20.648 20.648 0 0 0 -4.316-7.248 19.583 19.583 0 0 0 -6.93-4.744 23.85 23.85 0 0 0 -9.222-1.707 21.5 21.5 0 0 0 -9.648 2.24 19.86 19.86 0 0 0 -7.3 5.97z" transform="translate(-59.828 -202.923)"/><path d="m253.91 271.548a19.628 19.628 0 0 0 7.368-3.871 16.765 16.765 0 0 0 5.157-6.6c-1.445.062-2.874.2-4.3.366l-.683.1c-.21 0-.248-.045-.629-.441a20.577 20.577 0 0 1 -6.436 4.937l-.3-.365c3.941-2.15 6.949-6.218 6.949-6.722 0-.12-.381-.608-1.3-.686.075-.15.286-.488.628-.488.706 0 2.188 1.084 2.188 1.555 0 .215-.263.26-.491.306-.077 0-.781.959-.934 1.126l4.874-.243c.228-.047.266-.077.571-.32.153-.137.172-.153.228-.153.266 0 1.389 1.251 1.389 1.432 0 .155-.608.215-.763.215l-.321.549a19.275 19.275 0 0 1 -7.044 7.253 21.8 21.8 0 0 1 -5.941 2.5z" transform="translate(-121.167 -166.432)"/><path d="m254.014 271.662-.088-.271a19.359 19.359 0 0 0 7.273-3.82 16.48 16.48 0 0 0 5.075-6.484l.265.1.013.285c-1.437.062-2.859.2-4.283.365l-.033-.283.043.283-.683.1h-.043l-.42-.128a3.7 3.7 0 0 1 -.416-.4l.206-.2.218.185a20.865 20.865 0 0 1 -6.539 5.014l-.335-.078-.3-.365-.062-.236.143-.2a19.929 19.929 0 0 0 4.881-3.92 17.921 17.921 0 0 0 1.44-1.755 6.159 6.159 0 0 0 .378-.588l.087-.178.015-.043.108.017h-.11v-.017l.108.017h.033l-.132.065-.012-.065h.143l-.132.065a1.356 1.356 0 0 0 -1.046-.466l-.225-.146-.005-.268.268-.373a.873.873 0 0 1 .614-.27 3.048 3.048 0 0 1 1.525.654 4.057 4.057 0 0 1 .634.553 1.029 1.029 0 0 1 .315.633.528.528 0 0 1 -.326.476l-.395.11-.057.007v-.237l.15.2-.15.047v-.247l.15.2-.032-.042.035.038-.032-.042.035.038c-.038.03-.245.28-.425.513s-.361.47-.453.57l-.21-.193-.015-.285 4.874-.243.015.285-.058-.28.171-.053a3 3 0 0 0 .28-.21l.178.223-.19-.213.177-.15.241-.075.285.095a4.713 4.713 0 0 1 .838.774c.137.152.26.3.355.43l.122.182.075.236-.113.258a.993.993 0 0 1 -.513.2 3.09 3.09 0 0 1 -.421.042v-.286l.246.145-.323.549v.005a19.575 19.575 0 0 1 -7.14 7.348 22.11 22.11 0 0 1 -6.02 2.533l-.328-.16-.208-.456v-.233l.173-.157.088.271.26-.118.208.456-.26.118-.07-.276a21.565 21.565 0 0 0 5.865-2.468 18.979 18.979 0 0 0 6.945-7.157l.245.148-.246-.145.323-.549.245-.14.383-.045.161-.045h.008l.068.11-.1-.078.033-.032.068.11-.1-.078.173.132h-.216l.043-.132.173.132h-.05l-.156.068-.01-.068h.166l-.156.068-.191-.273a7.311 7.311 0 0 0 -.606-.658l-.275-.235-.08-.052h-.007l.047-.145v.152l-.047-.007.047-.145.083.123-.083.025v-.148l.083.123-.122.1-.012.01a3.061 3.061 0 0 1 -.351.258l-.341.118-.043.005-4.874.243-.273-.163.048-.315c.053-.057.278-.35.483-.608l.288-.358.118-.128.063-.057.193-.067v.285l-.058-.28.27-.07.018-.01.03.042-.042-.025.012-.017.03.042-.042-.025.063.037h-.075l.012-.037.063.037h-.052l-.023.005v-.005h.023l-.023.005-.208-.3a4.086 4.086 0 0 0 -.871-.668 1.977 1.977 0 0 0 -.824-.308l-.213.1-.162.226-.253-.13.023-.285a2.3 2.3 0 0 1 1.131.378l.291.27a.54.54 0 0 1 .135.323 1.107 1.107 0 0 1 -.172.483 20.533 20.533 0 0 1 -6.925 6.491l-.137-.251.218-.183.3.365-.218.183-.117-.261a20.315 20.315 0 0 0 6.334-4.861l.208-.1.215.087a4 4 0 0 0 .341.336l.083.018v.285l-.045-.281.683-.1h.012c1.432-.17 2.867-.306 4.324-.368l.245.12.033.271a17.055 17.055 0 0 1 -5.242 6.712 19.9 19.9 0 0 1 -7.463 3.923l-.087-.271.26-.118z" transform="translate(-121.272 -166.546)"/><path d="m262.842 267.593a39.974 39.974 0 0 0 9.158-5.075c1.713-1.249 3.96-3.26 3.96-3.642s-.456-.624-1.086-.671a.56.56 0 0 1 .571-.411c.819 0 2.285 1.189 2.285 1.722 0 .123-.038.23-.341.23l-.306-.03a31.966 31.966 0 0 1 -4.151 3.29c.173.123.609.413.609.716l-.21.383c-.093.32-.113 3.277-.113 3.307 0 .639.133 3.657.133 4.008 0 .718-.456.761-.571.761-.513 0-.571-1.355-.571-1.645l.113-.518c.058-.716.1-1.3.1-4.924 0-1.326-.038-1.417-.151-1.692a35.194 35.194 0 0 1 -9.235 4.587z" transform="translate(-115.226 -166.425)"/><path d="m262.947 267.708-.093-.27a39.782 39.782 0 0 0 9.083-5.035 33.4 33.4 0 0 0 2.6-2.128c.383-.348.713-.671.939-.921l.255-.31.05-.085v-.007l.133.038h-.137v-.038l.133.038h-.137l-.17-.211a1.541 1.541 0 0 0 -.653-.175l-.221-.135-.02-.26.271-.4a.854.854 0 0 1 .563-.188 3.052 3.052 0 0 1 1.625.721 3.964 3.964 0 0 1 .639.615 1.156 1.156 0 0 1 .306.673l-.153.375a.689.689 0 0 1 -.475.14h-.028l-.306-.03.028-.285.2.206a32.062 32.062 0 0 1 -4.194 3.325l-.153-.241.165-.233a3.493 3.493 0 0 1 .4.318.918.918 0 0 1 .328.631l-.035.137-.21.383-.251-.137.275.08a4.869 4.869 0 0 0 -.047.581c-.045.956-.055 2.629-.055 2.646 0 .624.132 3.638.133 4.008a1.053 1.053 0 0 1 -.353.874.818.818 0 0 1 -.5.172.648.648 0 0 1 -.551-.356 3.747 3.747 0 0 1 -.3-1.573l.007-.062.113-.518.278.062-.285-.023c.058-.708.1-1.271.1-4.9 0-.659-.01-1.011-.032-1.211a1.118 1.118 0 0 0 -.1-.373l.263-.108.17.228a35.388 35.388 0 0 1 -9.328 4.634l-.333-.151-.19-.4-.007-.233.17-.16.093.27.258-.123.19.4-.258.123-.077-.275a34.952 34.952 0 0 0 9.142-4.543l.246-.045.188.165a1.7 1.7 0 0 1 .138.531c.025.246.035.6.035 1.271 0 3.627-.038 4.221-.1 4.947l-.005.038-.113.518-.28-.062h.286a4.776 4.776 0 0 0 .087.872 1.451 1.451 0 0 0 .138.411l.058.073.153-.05c.048-.043.128-.123.133-.425 0-.333-.133-3.354-.133-4.008 0-.02.005-.764.022-1.55.008-.393.018-.8.035-1.122a4.172 4.172 0 0 1 .067-.714l.025-.057.21-.383.25.137h-.285l-.153-.22-.336-.263-.12-.24.132-.235a31.843 31.843 0 0 0 4.108-3.255l.225-.078.306.03-.028.285v-.286l.11-.008h.007l.043.1-.1-.047.053-.055.043.1-.1-.047.082.04-.09-.015.008-.025.082.04-.09-.015v-.013a.758.758 0 0 0 -.18-.315 3.75 3.75 0 0 0 -.889-.761 2.043 2.043 0 0 0 -.931-.361l-.195.053-.113.183-.263-.11.022-.285a2.057 2.057 0 0 1 .9.256.83.83 0 0 1 .446.7.691.691 0 0 1 -.152.376 11.489 11.489 0 0 1 -1.584 1.6c-.728.644-1.584 1.341-2.343 1.895a40.231 40.231 0 0 1 -9.233 5.114l-.093-.27.258-.123z" transform="translate(-115.331 -166.54)"/><path d="m273.663 261.132c.589.3 2.341 1.249 2.341 2.469 0 .152 0 .686-.495.686-.3 0-.363-.155-.515-.566a4.885 4.885 0 0 0 -1.6-2.286zm1.465 8.123a14.384 14.384 0 0 0 6.321-4.055 12.745 12.745 0 0 0 2.075-3.657c0-.183-.493-.52-.876-.579.057-.168.135-.306.5-.306.569 0 1.657.869 1.657 1.312 0 .152-.343.2-.476.211a11.274 11.274 0 0 1 -3.618 4.772 16.454 16.454 0 0 1 -5.388 2.7zm2.4-9.192c1.98 1.052 1.98 2.333 1.98 2.471 0 .823-.534.853-.591.853-.323 0-.38-.3-.476-.823a3.473 3.473 0 0 0 -1.217-2.241z" transform="translate(-108.205 -164.916)"/><path d="m273.777 261.232.13-.253a7.991 7.991 0 0 1 1.444.924 2.489 2.489 0 0 1 1.052 1.8 1.37 1.37 0 0 1 -.082.508.727.727 0 0 1 -.7.465.653.653 0 0 1 -.539-.236 1.947 1.947 0 0 1 -.243-.516v-.005a4.611 4.611 0 0 0 -1.505-2.156l-.108-.2.07-.215.266-.3.345-.065-.13.253.215.19-.266.3-.215-.19.176-.223a5.18 5.18 0 0 1 1.692 2.414l-.27.095.268-.1a1.646 1.646 0 0 0 .155.358l.092.022.168-.108.04-.293a1.95 1.95 0 0 0 -.846-1.359 7.538 7.538 0 0 0 -1.34-.856l.132-.255.215.19zm1.465 8.123-.085-.273a14.1 14.1 0 0 0 6.193-3.971 11.48 11.48 0 0 0 1.4-2.143c.19-.361.346-.694.455-.944l.122-.306.027-.085v-.015l.143.027h-.145v-.027l.143.027h-.023l-.11.06-.012-.06h.122l-.11.06-.233-.193-.413-.163-.2-.135-.027-.238.23-.351a.852.852 0 0 1 .538-.15 2.246 2.246 0 0 1 1.219.551 2.874 2.874 0 0 1 .485.48.978.978 0 0 1 .238.566.4.4 0 0 1 -.168.323 1.206 1.206 0 0 1 -.565.173l-.028-.285.261.113a11.567 11.567 0 0 1 -3.7 4.886 16.735 16.735 0 0 1 -5.487 2.746l-.335-.151-.19-.4v-.236l.176-.16.085.273.256-.123.19.4-.256.123-.078-.275a16.16 16.16 0 0 0 5.29-2.648 10.986 10.986 0 0 0 3.532-4.661l.235-.17.23-.043.038-.013.01-.005.058.088-.087-.06.028-.028.058.088-.087-.06.152.1h-.183l.032-.1.152.1h-.183l-.02-.062a2.027 2.027 0 0 0 -.606-.628 1.613 1.613 0 0 0 -.744-.336l-.188.03-.038.082-.27-.092.043-.281a1.832 1.832 0 0 1 .7.288l.266.223a.529.529 0 0 1 .155.35l-.062.265a13.831 13.831 0 0 1 -2.085 3.582 14.671 14.671 0 0 1 -6.451 4.138l-.083-.273.256-.123zm2.4-9.192.133-.251c2.076 1.086 2.145 2.534 2.131 2.723a1.151 1.151 0 0 1 -.383.959.823.823 0 0 1 -.493.18.624.624 0 0 1 -.581-.381 2.924 2.924 0 0 1 -.177-.674v-.012a3.185 3.185 0 0 0 -1.117-2.063l-.1-.218.1-.218.306-.26.318-.035-.133.251.185.218-.3.26-.185-.218.181-.22a3.756 3.756 0 0 1 1.317 2.419l-.281.042.28-.052a2.617 2.617 0 0 0 .132.536l.065.053.042-.008.152-.1a.737.737 0 0 0 .112-.458c-.013-.087.057-1.2-1.828-2.218l.135-.253.185.218z" transform="translate(-108.319 -165.016)"/><path d="m281.995 271.548a19.617 19.617 0 0 0 7.368-3.871 16.77 16.77 0 0 0 5.159-6.6c-1.447.062-2.876.2-4.3.366l-.684.1c-.21 0-.248-.045-.63-.441a20.577 20.577 0 0 1 -6.436 4.937l-.3-.365c3.941-2.15 6.949-6.218 6.949-6.722 0-.12-.38-.608-1.294-.686.075-.15.285-.488.626-.488.706 0 2.19 1.084 2.19 1.555 0 .215-.265.26-.493.306-.077 0-.781.959-.934 1.126l4.874-.243c.228-.047.266-.077.571-.32.153-.137.173-.153.228-.153.266 0 1.39 1.251 1.39 1.432 0 .155-.609.215-.763.215l-.323.549a19.275 19.275 0 0 1 -7.044 7.253 21.794 21.794 0 0 1 -5.949 2.502z" transform="translate(-102.486 -166.432)"/><path d="m282.1 271.662-.087-.271a19.341 19.341 0 0 0 7.272-3.82 16.5 16.5 0 0 0 5.077-6.484l.265.1.012.285c-1.437.062-2.859.2-4.281.365l-.033-.283.043.283-.684.1h-.043l-.418-.128a3.555 3.555 0 0 1 -.418-.4l.206-.2.218.185a20.864 20.864 0 0 1 -6.539 5.014l-.335-.078-.3-.365-.06-.236.143-.2a19.917 19.917 0 0 0 4.879-3.92 17.991 17.991 0 0 0 1.442-1.755 6.424 6.424 0 0 0 .376-.588l.088-.178.013-.043.11.017h-.112v-.017l.11.017h.032l-.132.065-.012-.065h.143l-.132.065a1.35 1.35 0 0 0 -1.044-.466l-.225-.145-.005-.268.266-.375a.876.876 0 0 1 .614-.27 3.048 3.048 0 0 1 1.525.654 3.982 3.982 0 0 1 .634.553 1.02 1.02 0 0 1 .315.633.524.524 0 0 1 -.325.476l-.4.11-.057.007v-.236l.15.2-.15.047v-.247l.15.2-.03-.042.033.038-.03-.042.033.038c-.038.03-.243.28-.423.513s-.363.47-.455.57l-.21-.193-.015-.285 4.874-.243.015.285-.057-.28.172-.053a3.08 3.08 0 0 0 .278-.21l.178.223-.19-.213.18-.15.238-.075.286.095a4.817 4.817 0 0 1 .838.773c.137.153.261.3.356.431l.12.182.075.236-.113.258a.993.993 0 0 1 -.513.2 3.115 3.115 0 0 1 -.421.042v-.286l.246.145-.323.549v.005a19.568 19.568 0 0 1 -7.138 7.348 22.144 22.144 0 0 1 -6.021 2.533l-.328-.16-.208-.456v-.233l.175-.157.087.271.26-.118.208.456-.26.118-.068-.276a21.533 21.533 0 0 0 5.863-2.468 19 19 0 0 0 6.947-7.157l.243.148-.246-.145.323-.549.246-.14.383-.045.163-.045h.007l.068.11-.1-.077.033-.033.068.11-.1-.077.173.132h-.216l.043-.132.173.132h-.048l-.157.068-.012-.068h.168l-.157.068-.193-.273a7.324 7.324 0 0 0 -.606-.658l-.275-.235-.082-.052.045-.145v.152l-.045-.007.045-.145v-.006l.047.152-.047.008v-.16l.047.152-.047-.15.082.135-.035.015-.047-.15.082.135-.118.1-.012.01a3.228 3.228 0 0 1 -.35.258l-.343.118-.042.005-4.874.243-.273-.163.048-.315c.053-.057.278-.35.481-.608l.288-.358.118-.128.063-.057.193-.067v.285l-.057-.28.268-.07.02-.01.028.042-.042-.025.013-.017.028.042-.042-.025.063.037h-.075l.012-.037.063.037h-.05l-.023.005v-.005h.025l-.023.005-.21-.3a4.116 4.116 0 0 0 -.869-.668 1.981 1.981 0 0 0 -.826-.308l-.211.1-.16.225-.255-.128.025-.285a2.3 2.3 0 0 1 1.129.378l.291.27a.53.53 0 0 1 .133.323 1.106 1.106 0 0 1 -.172.483 20.516 20.516 0 0 1 -6.925 6.491l-.137-.251.22-.183.3.365-.22.183-.115-.261a20.294 20.294 0 0 0 6.333-4.861l.208-.1.215.087a3.644 3.644 0 0 0 .343.336l.082.018v.285l-.043-.281.684-.1h.01c1.43-.17 2.867-.306 4.324-.368l.245.12.032.271a17.05 17.05 0 0 1 -5.24 6.712 19.894 19.894 0 0 1 -7.465 3.923l-.087-.271.26-.118z" transform="translate(-102.591 -166.546)"/><path d="m297.091 262.747a1.808 1.808 0 1 1 -1.808-1.813 1.809 1.809 0 0 1 1.808 1.813" transform="translate(-94.851 -164.337)"/><path d="m297.205 262.862h.285a2.094 2.094 0 1 1 -2.093-2.1 2.092 2.092 0 0 1 2.093 2.1h-.571a1.523 1.523 0 1 0 -1.522 1.512 1.523 1.523 0 0 0 1.522-1.512z" transform="translate(-94.965 -164.451)"/><path d="m298.959 260.045c2.381.611 4.436 1.83 4.436 2.866 0 .4-.23.548-.436.548-.345 0-.554-.243-.819-.578a9.117 9.117 0 0 0 -3.332-2.409z" transform="translate(-91.304 -164.928)"/><path d="m299.066 260.155.072-.276a11.626 11.626 0 0 1 3.192 1.309c.834.536 1.437 1.117 1.459 1.833a.879.879 0 0 1 -.22.619.693.693 0 0 1 -.5.215.974.974 0 0 1 -.618-.226 2.867 2.867 0 0 1 -.425-.46l.223-.178-.22.183a8.81 8.81 0 0 0 -3.229-2.331l-.152-.356.152-.426.34-.182-.072.276.27.1-.152.426-.27-.1.117-.26a9.41 9.41 0 0 1 3.435 2.486l.005.007a2.35 2.35 0 0 0 .333.368l.261.1.09-.037.062-.226c.022-.32-.4-.866-1.192-1.35a11.1 11.1 0 0 0 -3.027-1.237l.07-.276.27.1z" transform="translate(-91.411 -165.038)"/><path d="m314.514 259.893c-.59 1.067-3.35 5.548-10.164 9.13-.325.167-1.847.9-2 1.036l-.228.3-.172.062a3.518 3.518 0 0 1 -2.17-1.95.87.87 0 0 1 .361-.611 2.016 2.016 0 0 0 1.257 1.189c.932 0 9.328-3.978 12.717-9.465z" transform="translate(-90.657 -165.232)"/><path d="m314.628 260.005.25.138c-.608 1.1-3.407 5.632-10.281 9.245-.168.087-.628.31-1.067.531-.218.11-.431.218-.6.306l-.2.115-.062.037-.013.01-.023-.03.025.027-.023-.03.025.027-.188-.213.228.172-.228.3-.132.1-.171.062-.1.017a1.592 1.592 0 0 1 -.784-.275 5.2 5.2 0 0 1 -1.1-.932 3.522 3.522 0 0 1 -.393-.513 1.038 1.038 0 0 1 -.182-.515 1.135 1.135 0 0 1 .451-.819l.255-.072.2.17a2 2 0 0 0 .588.773l.293.193.1.042.023.005-.008.043v-.043h.008l-.008.043v-.043a2.5 2.5 0 0 0 .576-.163c2.221-.808 9.01-4.466 11.9-9.165l.191-.132.225.053.4.3.077.366-.25-.138-.173.226-.4-.3.173-.226.243.15a23.78 23.78 0 0 1 -7.37 6.88 33.178 33.178 0 0 1 -3.565 1.985c-.491.231-.916.411-1.252.536a2.663 2.663 0 0 1 -.773.2l-.366-.107a2.542 2.542 0 0 1 -1.154-1.257l.263-.11.195.208-.271.4.037.1a3.746 3.746 0 0 0 .859 1 2.108 2.108 0 0 0 .989.563v.286l-.1-.27.09-.032.176-.237.04-.043a2.551 2.551 0 0 1 .388-.233c.516-.276 1.437-.721 1.673-.842l.13.255-.133-.253c6.754-3.55 9.476-7.983 10.048-9.015l.25.138-.173.226z" transform="translate(-90.772 -165.344)"/><path d="m300.319 257.987c2.991.729 4.912 2.026 4.912 2.911 0 .213-.077.609-.418.609-.323 0-.458-.153-.878-.654a9.407 9.407 0 0 0 -3.825-2.469z" transform="translate(-90.436 -166.297)"/><path d="m300.426 258.1.067-.278a13.032 13.032 0 0 1 3.66 1.432c.878.554 1.444 1.1 1.47 1.757a1.189 1.189 0 0 1 -.11.51.652.652 0 0 1 -.593.385.883.883 0 0 1 -.581-.2 4.292 4.292 0 0 1 -.516-.554l.22-.183-.218.185a9.146 9.146 0 0 0 -3.7-2.386l-.172-.165.013-.236.208-.4.32-.145-.067.278.253.132-.208.4-.253-.132.095-.27a9.664 9.664 0 0 1 3.946 2.553 3.726 3.726 0 0 0 .435.476l.225.077.08-.065.052-.258c.027-.231-.366-.774-1.2-1.271a12.441 12.441 0 0 0 -3.5-1.364l.068-.276.253.132z" transform="translate(-90.543 -166.408)"/><path d="m318.634 265.067a12.258 12.258 0 0 0 2.473-3.46c-.741.228-3.978 1.172-4.624 1.372.266 1.021 1.807 5.973 1.807 6.4 0 .245-.055.4-.3.4-.478 0-.821-.838-.839-1.066-.058-.992-.343-1.982-1.37-5.5-.23.077-2.972.916-3.044.959l-.4.4c-.288 0-1.449-.838-1.449-1.539a.552.552 0 0 1 .266-.486c.115.29.343.914.916.914a4.176 4.176 0 0 0 .778-.123c.44-.1 2.381-.593 2.761-.686 0-.03-.321-1.142-.609-1.92-.112-.335-.246-.335-.626-.335a1.018 1.018 0 0 0 -.646.122c-.06-.488.15-.7 1.084-.7.133 0 1.332 0 1.332.351l-.266.426c0 .062.381 1.509.475 1.858.688-.2 3.75-.989 4.361-1.2.343-.473.38-.518.533-.518a4.161 4.161 0 0 1 1.449 1.372c0 .167-.726.167-.8.167a26.543 26.543 0 0 1 -2.912 3.1z" transform="translate(-83.271 -165.086)"/><path d="m318.748 265.181-.2-.2a12.052 12.052 0 0 0 2.414-3.379l.256.123.085.273c-.746.228-3.983 1.172-4.624 1.37l-.085-.271.276-.073c.13.5.583 2 1 3.415.21.709.411 1.4.561 1.945.075.273.137.508.18.691a2.205 2.205 0 0 1 .075.423.807.807 0 0 1 -.1.445.554.554 0 0 1 -.483.236 1.057 1.057 0 0 1 -.834-.583 1.964 1.964 0 0 1 -.29-.746c-.053-.937-.33-1.917-1.359-5.44l.273-.08.092.27c-.127.042-.863.27-1.587.495-.361.112-.719.223-.989.31l-.328.1-.093.032-.022.008-.068-.176.1.162-.028.015-.068-.176.1.162-.145-.245.2.2-.4.4-.2.082a1.05 1.05 0 0 1 -.495-.183 3.43 3.43 0 0 1 -.786-.658 1.574 1.574 0 0 1 -.453-.982.844.844 0 0 1 .373-.709l.251-.053.193.17a2.1 2.1 0 0 0 .25.5.483.483 0 0 0 .4.233 3.918 3.918 0 0 0 .719-.117l.058.28-.065-.278c.435-.1 2.378-.593 2.759-.686l.067.278h-.028l-.251.052v-.052h.256l-.251.052c0-.012-.088-.32-.2-.683s-.261-.823-.4-1.191v-.008l-.052-.117-.062-.012-.238-.007a1.9 1.9 0 0 0 -.356.02l-.157.068h-.266l-.152-.22-.012-.173a.734.734 0 0 1 .381-.678 2.145 2.145 0 0 1 1-.17 5.927 5.927 0 0 1 .756.047 2.045 2.045 0 0 1 .5.125l.228.15.133.316-.043.151-.268.426-.241-.152h.062l.221-.037v.037h-.223l.221-.037c0 .03.1.43.2.824s.218.828.263 1l-.276.075-.078-.275c.691-.2 3.768-1 4.346-1.2l.093.27-.23-.168a4.127 4.127 0 0 1 .368-.471l.395-.165.271.088a5.173 5.173 0 0 1 .863.714l.385.416.133.188.082.251-.138.278-.288.12a3.659 3.659 0 0 1 -.658.053v-.285l.221.178a26.485 26.485 0 0 1 -2.947 3.132h-.371l-.343-.29-.1-.208.087-.215.2.2.185-.218.343.29-.183.218-.188-.216a26 26 0 0 0 2.877-3.059l.223-.107c.033 0 .225 0 .4-.018l.2-.037h.012l.057.113-.092-.083.035-.03.057.113-.092-.083.163.15h-.22l.057-.15.163.15h-.072l-.138.058-.01-.058h.148l-.138.058-.2-.26a6.69 6.69 0 0 0 -.641-.618l-.286-.221-.083-.05h-.008l.048-.157v.163l-.048-.007.048-.157v.163h-.015l-.01-.08.042.068-.032.012-.01-.08.042.068-.012.013a4.243 4.243 0 0 0 -.306.4l-.137.1c-.644.226-3.695 1.014-4.376 1.209l-.22-.025-.135-.175c-.048-.176-.167-.624-.275-1.039-.053-.208-.1-.406-.142-.558l-.047-.188-.023-.147.043-.153.268-.426.241.153h-.17l-.085.083-.03-.083h.115l-.085.083-.035-.02a1.984 1.984 0 0 0 -.571-.112c-.223-.018-.423-.018-.471-.018a1.74 1.74 0 0 0 -.726.1l-.082.176.007.1-.283.035-.135-.253.3-.122a2.287 2.287 0 0 1 .476-.033 1.315 1.315 0 0 1 .53.067.707.707 0 0 1 .368.463l-.271.092.268-.1c.146.4.3.873.418 1.256.058.191.108.358.143.481l.042.148.013.048.012.087-.218.276c-.378.093-2.318.581-2.762.686h-.007a4.294 4.294 0 0 1 -.838.13 1.063 1.063 0 0 1 -.859-.463 2.675 2.675 0 0 1 -.321-.631l.265-.1.18.221c-.147.135-.145.1-.16.265a1.4 1.4 0 0 0 .523.821l.438.33.165.085.045.017-.013.088v-.09h.013l-.013.088v.2l-.2-.2.4-.4.055-.043.095-.04c.378-.135 2.8-.876 3.006-.944l.223.018.142.173c1.026 3.518 1.319 4.519 1.382 5.567l-.286.017.285-.023a1.617 1.617 0 0 0 .207.491c.125.211.291.326.348.311h.033l.03.065-.053-.047.023-.018.03.065-.053-.047.033.028-.042-.018.008-.01.033.028-.042-.018.015-.137v-.017c-.035-.278-.425-1.647-.829-3.014s-.834-2.791-.968-3.3l.193-.345c.651-.2 3.888-1.146 4.624-1.372l.3.087.042.31a12.545 12.545 0 0 1 -2.531 3.54l-.2-.2.185-.218z" transform="translate(-83.385 -165.2)"/><path d="m319.552 268.333c3.14-2.438 5.6-7.179 5.6-7.835 0-.15-.3-.624-1.409-.654.19-.32.323-.5.761-.5.858 0 2.171.914 2.171 1.357 0 .182-.115.211-.458.3a20.053 20.053 0 0 1 -6.339 7.7z" transform="translate(-77.505 -165.396)"/><path d="m319.666 268.447-.176-.226a18.517 18.517 0 0 0 3.911-4.513 20.99 20.99 0 0 0 1.172-2.063c.137-.28.241-.523.31-.708a1.369 1.369 0 0 0 .093-.325h.088l-.085.032v-.032h.088l-.085.032c-.005-.033-.233-.378-1.134-.4l-.241-.147v-.285a1.5 1.5 0 0 1 .36-.451 1.021 1.021 0 0 1 .648-.191 3.149 3.149 0 0 1 1.562.559 3.2 3.2 0 0 1 .6.491.922.922 0 0 1 .295.593l-.241.431a1.844 1.844 0 0 1 -.428.148l-.073-.276.255.127a20.344 20.344 0 0 1 -6.434 7.808l-.375-.048-.323-.366-.07-.215.108-.2.176.226.213-.188.323.366-.213.188-.162-.236a19.764 19.764 0 0 0 6.244-7.588l.182-.15a1.751 1.751 0 0 0 .288-.088l.045.078-.075-.042.03-.037.045.078-.075-.042.092.05-.1-.022.012-.028.092.05-.1-.022a1.872 1.872 0 0 0 -.709-.653 2.537 2.537 0 0 0 -1.174-.418.457.457 0 0 0 -.3.073 1.011 1.011 0 0 0 -.216.291l-.245-.146.007-.285a2.4 2.4 0 0 1 1.269.328.807.807 0 0 1 .418.611 1.666 1.666 0 0 1 -.13.525 20.982 20.982 0 0 1 -5.577 7.535l-.175-.225.213-.188z" transform="translate(-77.619 -165.511)"/><path d="m325.6 259.35c4.093 2.469 6.854 6.752 6.854 8.307 0 .2-.038.821-.42.821-.475 0-.7-.624-.761-.791a17.138 17.138 0 0 0 -5.96-7.988z" transform="translate(-73.673 -165.39)"/><path d="m325.712 259.448.148-.245a18.656 18.656 0 0 1 5.04 4.568 8.261 8.261 0 0 1 1.952 3.985 2.019 2.019 0 0 1 -.08.569l-.19.345a.587.587 0 0 1 -.436.191.955.955 0 0 1 -.771-.455 2.239 2.239 0 0 1 -.26-.526l.27-.095-.268.1a16.851 16.851 0 0 0 -5.858-7.855l-.117-.195.063-.218.286-.35.368-.063-.148.245.222.18-.286.351-.222-.182.167-.233a17.433 17.433 0 0 1 6.061 8.121v.005l.19.39.3.21.017-.008.118-.526a7.964 7.964 0 0 0 -1.833-3.638 18.091 18.091 0 0 0 -4.882-4.424l.147-.245.222.18z" transform="translate(-73.786 -165.488)"/><path d="m348 259.87a20.9 20.9 0 0 1 -6.965 8.108 29.048 29.048 0 0 1 -5.863 3.141c-.155.045-.326.107-.363.2-.135.243-.153.3-.345.3a3.018 3.018 0 0 1 -1.75-2.163c0-.306.075-.428.495-.748.095.716.57 1.432 1.142 1.432.761 0 4.664-1.66 7.655-4.055a22.492 22.492 0 0 0 5.558-6.476zm-14.923-1.87a12.519 12.519 0 0 1 4.188 1.617c.589.4 1.161.929 1.161 1.569 0 .275-.075.7-.551.7-.341 0-.458-.137-.931-.746a9.365 9.365 0 0 0 -4-2.683z" transform="translate(-68.749 -166.292)"/><path d="m348.116 259.984.261.117a21.172 21.172 0 0 1 -7.067 8.227 29.215 29.215 0 0 1 -5.926 3.172l-.017.005-.181.065-.032.018-.075-.093.108.045-.033.048-.075-.093.108.045-.013.027-.2.308-.4.145a1.151 1.151 0 0 1 -.624-.268 4.3 4.3 0 0 1 -.919-.941 2.271 2.271 0 0 1 -.491-1.239.905.905 0 0 1 .137-.526 1.984 1.984 0 0 1 .471-.45l.281-.035.173.225a1.868 1.868 0 0 0 .338.851.7.7 0 0 0 .521.333 3.924 3.924 0 0 0 1-.278 26.06 26.06 0 0 0 6.477-3.713 22.261 22.261 0 0 0 5.485-6.383l.175-.145.225.028.436.258.115.363-.261-.117-.145.245-.436-.258.145-.245.255.13a22.747 22.747 0 0 1 -5.635 6.569 26.734 26.734 0 0 1 -4.714 2.957 20.686 20.686 0 0 1 -1.922.844 4.182 4.182 0 0 1 -1.2.315 1.252 1.252 0 0 1 -.977-.561 2.422 2.422 0 0 1 -.448-1.119l.283-.037.173.227a1.553 1.553 0 0 0 -.338.308l-.043.213a2.226 2.226 0 0 0 .638 1.224 3.639 3.639 0 0 0 .536.495l.212.13.065.025h.013.033l.005.053-.023-.047.018-.007.005.053-.023-.047.043.085-.068-.067.025-.018.043.085-.068-.067.025-.04.078-.142.251.138-.265-.11a.535.535 0 0 1 .278-.263l.268-.1.082.275-.1-.268a28.731 28.731 0 0 0 5.8-3.109 20.614 20.614 0 0 0 6.867-7.988l.26.117-.145.245zm-14.925-1.875.073-.276a12.8 12.8 0 0 1 4.278 1.657 2.417 2.417 0 0 1 1.287 1.8 1.219 1.219 0 0 1 -.133.591.767.767 0 0 1 -.7.395.854.854 0 0 1 -.6-.211 4.39 4.39 0 0 1 -.558-.644l.227-.175-.223.178a9.067 9.067 0 0 0 -3.878-2.594l-.172-.346.133-.458a.284.284 0 0 1 .346-.2l-.073.276.275.08-.133.458-.275-.08.1-.266a9.617 9.617 0 0 1 4.118 2.771 4.279 4.279 0 0 0 .475.558l.231.077c.151-.008.158-.035.2-.1l.062-.315c.017-.455-.461-.954-1.034-1.332a12.239 12.239 0 0 0 -4.1-1.575l.072-.276.275.08z" transform="translate(-68.863 -166.406)"/><path d="m349.054 271.441c6.472-1.036 8.624-4.008 9.861-6.691a12.8 12.8 0 0 0 1.1-3.473c-1.237-.047-7.6.243-9.044.365-.265.015-1.58.167-1.713.167-.151 0-.266-.045-.608-.333.093.761.266 3.55.266 4.328 0 .183 0 .791-.4.791a1.032 1.032 0 0 1 -.706-.944c0-.26.038-1.432.038-1.675a10.221 10.221 0 0 0 -.3-2.806 1.559 1.559 0 0 0 -1.141-.669.58.58 0 0 1 .551-.428 2.36 2.36 0 0 1 1.7.869c1.37-.045 3.558-.078 4.931-.108a18.5 18.5 0 0 0 -.057-1.95c-.058-.425-.589-.52-1.067-.52a2.246 2.246 0 0 0 -.458.047c.077-.564.306-.624.916-.624 1.312 0 2.15.488 2.15.778 0 .137-.19.228-.4.32 0 .093-.057.884-.077 1.937.8-.017 4.359-.077 5.084-.122l.781-.656a4.087 4.087 0 0 1 1.484 1.464c0 .152-.646.152-.819.122-1.5 5.563-4.13 9.3-11.936 10.3z" transform="translate(-59.642 -166.431)"/><path d="m349.158 271.555-.045-.283c6.4-1.039 8.417-3.895 9.646-6.527a12.593 12.593 0 0 0 1.081-3.389l.283.035-.01.285-.341-.005c-1.773 0-7.347.258-8.669.37h-.003c-.115.007-.516.048-.893.088s-.723.077-.838.078l-.365-.092a2.5 2.5 0 0 1 -.428-.308l.185-.218.283-.035c.1.788.268 3.557.27 4.363a2.064 2.064 0 0 1 -.062.541l-.185.346a.6.6 0 0 1 -.44.188l-.351-.118a1.391 1.391 0 0 1 -.641-1.111c0-.271.04-1.444.038-1.675 0-.471-.028-1.079-.078-1.605-.027-.263-.058-.506-.093-.7a1.582 1.582 0 0 0 -.1-.368v-.007c-.152-.33-.654-.465-.944-.52l-.195-.148-.008-.245.256-.39a.794.794 0 0 1 .556-.21 2.649 2.649 0 0 1 1.9.961l-.21.195-.01-.286c1.375-.045 3.563-.078 4.934-.108l.007.286-.285-.01v-.363c0-.588-.033-1.4-.057-1.53v-.008l-.2-.192a1.721 1.721 0 0 0 -.588-.082 1.892 1.892 0 0 0 -.4.042l-.251-.073-.087-.245a.926.926 0 0 1 .395-.731 1.561 1.561 0 0 1 .8-.142 4.371 4.371 0 0 1 1.678.3 1.922 1.922 0 0 1 .508.3.631.631 0 0 1 .25.46.51.51 0 0 1 -.243.41l-.326.172-.115-.261h.286c0 .127-.058.889-.078 1.942l-.285-.005-.007-.286c.8-.017 4.368-.077 5.072-.122l.018.286-.183-.22.781-.656.183-.067.283.092a4.9 4.9 0 0 1 .889.763 5.28 5.28 0 0 1 .386.445l.133.2.077.251a.36.36 0 0 1 -.2.316 1.529 1.529 0 0 1 -.641.107l-.311-.022.05-.28.276.073a14.592 14.592 0 0 1 -3.682 6.992c-1.875 1.807-4.553 3.012-8.494 3.52l-.311-.208-.133-.488.035-.23.195-.128.045.283.275-.077.133.488-.275.077-.037-.283c3.865-.5 6.4-1.664 8.171-3.365a14.009 14.009 0 0 0 3.525-6.729l.326-.206.211.012.316-.025.045-.01h.01l.058.123-.1-.09.04-.033.058.123-.1-.09.166.155h-.226l.06-.155.166.155h-.095l-.123.048-.008-.048h.132l-.123.048-.2-.283a6.723 6.723 0 0 0 -.651-.658l-.293-.235-.088-.052h-.01l.042-.138v.143h-.042l.042-.138v-.142l.183.218-.781.656-.165.067c-.744.045-4.293.1-5.1.122l-.208-.083-.085-.208c.02-1.051.078-1.872.077-1.93l.171-.261.228-.117.02-.015.092.075h-.113l.022-.075.092.075h-.008l-.1.033v-.033h.1l-.1.033h.005-.005.005-.005a1.2 1.2 0 0 0 -.541-.318 3.983 3.983 0 0 0 -1.327-.208 1.177 1.177 0 0 0 -.511.06c-.037.023-.083.06-.122.318l-.283-.038-.055-.281a2.61 2.61 0 0 1 .513-.052 2.293 2.293 0 0 1 .793.12.816.816 0 0 1 .558.646l-.283.04.281-.048c.038.241.063 1 .065 1.625l-.005.381a.285.285 0 0 1 -.278.276c-1.374.03-3.562.063-4.927.108l-.22-.092a2.073 2.073 0 0 0 -1.485-.778l-.167.057-.123.2-.261-.113.058-.28a1.82 1.82 0 0 1 1.337.819l-.255.13.251-.137a1.939 1.939 0 0 1 .157.536 15.728 15.728 0 0 1 .183 2.406c0 .255-.04 1.425-.04 1.675a.758.758 0 0 0 .2.478l.17.15.057.03h.007l-.017.08v-.082h.017l-.017.08v-.082l.023-.008.09-.5c0-.749-.173-3.56-.263-4.294l.147-.285.321.033a1.966 1.966 0 0 0 .323.238l.1.027c.018 0 .408-.037.778-.077s.769-.08.919-.09l.017.286-.023-.285c1.359-.113 6.9-.371 8.715-.371l.361.005.207.1.067.222a13.034 13.034 0 0 1 -1.129 3.558c-1.244 2.731-3.525 5.82-10.074 6.852l-.045-.281.275-.077z" transform="translate(-59.746 -166.546)"/><path d="m364.086 262.53-.113.413a32.089 32.089 0 0 0 -.115 3.946c2.932-.138 3.465-.168 3.808-.23l.57-.212c.077 0 1.564.228 1.564.746 0 .213-.153.335-.42.335-.173 0-.991-.137-1.162-.151-.285-.015-.515-.015-.894-.015a67.622 67.622 0 0 0 -8.224.533l-.515.228c-.4 0-1.2-.989-1.2-1.432a.791.791 0 0 1 .321-.579c.022.168.268.961.971.961.191 0 3.733-.137 4.419-.153.018-.929.038-2.21.038-2.378a10.629 10.629 0 0 0 -.228-2.774 23.3 23.3 0 0 0 -2.533.275l-.456.245a1.964 1.964 0 0 1 -1.219-1.419c0-.29.075-.365.323-.548.058.275.21.991.971.991.819 0 5.618-.245 6.073-.306l.686-.243c.228 0 1.465.17 1.465.611 0 .29-.3.29-.436.29-.172 0-.932-.062-1.089-.062-.816 0-3.254.137-3.347.137.21.137.741.473.741.793" transform="translate(-52.34 -164.745)"/><path d="m364.2 262.636.275.075-.113.413-.275-.075.278.06a33.557 33.557 0 0 0 -.108 3.89h-.285l-.013-.285c2.929-.138 3.47-.17 3.77-.226l.052.281-.1-.268.571-.211.1-.017a2.251 2.251 0 0 1 .331.048 4.363 4.363 0 0 1 .871.258l.415.251a.639.639 0 0 1 .231.473.588.588 0 0 1 -.218.471.773.773 0 0 1 -.486.15c-.138 0-.368-.038-.623-.073s-.5-.075-.564-.08l.025-.285-.017.285c-.275-.013-.5-.013-.878-.013-1.141 0-2.957.072-4.6.175a31.153 31.153 0 0 0 -3.552.348l-.07-.276.115.261-.514.228-.115.025a.914.914 0 0 1 -.53-.22 3.045 3.045 0 0 1 -.633-.691 1.584 1.584 0 0 1 -.323-.808 1.069 1.069 0 0 1 .41-.784l.295-.063.188.235a1.174 1.174 0 0 0 .18.415.6.6 0 0 0 .506.295c.172 0 3.725-.137 4.411-.153l.008.285-.286-.005c.018-.927.038-2.213.038-2.373 0-.3 0-.889-.028-1.445-.013-.278-.035-.549-.065-.768a1.537 1.537 0 0 0 -.1-.423l.251-.138v.286c-.042 0-.589.037-1.141.09a11.7 11.7 0 0 0 -1.314.173l-.078-.275.135.251-.456.245-.135.035a.92.92 0 0 1 -.47-.182 2.934 2.934 0 0 1 -.666-.624 1.548 1.548 0 0 1 -.37-.9.835.835 0 0 1 .113-.468l.326-.31.27-.037.178.208a1.512 1.512 0 0 0 .182.5.551.551 0 0 0 .511.265c.786 0 5.627-.246 6.033-.3l.04.283-.1-.268.686-.243.1-.017a3.912 3.912 0 0 1 .9.152 2 2 0 0 1 .528.223.636.636 0 0 1 .326.521.543.543 0 0 1 -.35.52 1.012 1.012 0 0 1 -.371.057c-.2 0-.962-.063-1.089-.062-.8 0-3.225.135-3.347.137v-.286l.155-.24a3.929 3.929 0 0 1 .483.355.961.961 0 0 1 .388.678l-.01.075-.275-.075h-.286l-.037-.08a2.226 2.226 0 0 0 -.574-.473l-.118-.321.275-.2c.063 0 2.518-.137 3.347-.137.185 0 .944.062 1.089.062l.163-.017h.005l.03.043-.047-.023.017-.02.03.043-.047-.023.028.015-.03-.008v-.007l.028.015-.03-.008v-.012h.05l-.047.017v-.017h.05l-.047.017-.02-.02a1.51 1.51 0 0 0 -.593-.236 3.31 3.31 0 0 0 -.569-.085v-.286l.095.27-.686.243-.058.013c-.5.067-5.259.308-6.109.31a1.135 1.135 0 0 1 -.987-.521 1.991 1.991 0 0 1 -.263-.7l.28-.06.168.23-.183.158-.023.16a1.309 1.309 0 0 0 .421.744l.358.3.133.075.033.012-.012.045v-.045h.012l-.012.045v.24l-.137-.251.458-.245.055-.023a10.98 10.98 0 0 1 1.417-.191c.573-.055 1.082-.093 1.2-.093l.25.146a1.965 1.965 0 0 1 .165.621 19.74 19.74 0 0 1 .1 2.291c0 .176-.02 1.452-.038 2.384a.288.288 0 0 1 -.278.28c-.686.017-4.213.152-4.426.153a1.174 1.174 0 0 1 -.976-.541 1.675 1.675 0 0 1 -.278-.673l.283-.033.2.2c-.188.186-.235.253-.236.375a1.649 1.649 0 0 0 .385.7l.346.343.137.087.04.015h.007v.285l-.117-.261.515-.228.045-.015a30.114 30.114 0 0 1 3.658-.366c1.654-.1 3.475-.175 4.637-.175.378 0 .614 0 .909.015h.008c.11.01.348.048.6.083s.506.07.541.068l.132-.027v-.025h.01-.01.01-.01l-.172-.14a2.859 2.859 0 0 0 -.694-.245l-.3-.062-.095-.015h-.025l.012-.113v.113h-.012l.012-.113v-.173l.1.268-.571.211-.048.013c-.385.068-.911.095-3.845.233l-.213-.078-.087-.21a30.83 30.83 0 0 1 .122-4v-.017l.113-.413.276.075z" transform="translate(-52.455 -164.852)"/><path d="m367.942 270.863a19.738 19.738 0 0 0 7.007-4.284 16.211 16.211 0 0 0 4-6.691c-6.341.366-9.863.566-10.357.716l-.551.245c-.5 0-1.392-1.1-1.392-1.95 0-.291.286-.5.514-.656a2.7 2.7 0 0 0 .438 1.144c.115.182.285.228 1.029.228.285 0 8.073-.183 9.958-.321l.589-.3a4.233 4.233 0 0 1 1.314 1.279c0 .168-.475.245-.591.258-2.626 7.653-9.538 10.029-11.728 10.792z" transform="translate(-46.18 -166.127)"/><path d="m368.056 270.967-.1-.266a19.47 19.47 0 0 0 6.909-4.221 15.921 15.921 0 0 0 3.925-6.567l.275.08.017.285c-3.17.183-5.637.325-7.368.438-.866.058-1.55.108-2.045.153a6.646 6.646 0 0 0 -.878.113l-.083-.273.117.26-.551.245-.117.025a1.038 1.038 0 0 1 -.6-.243 2.835 2.835 0 0 1 -1.081-1.996.846.846 0 0 1 .246-.574l.395-.32.278-.022.163.223a2.449 2.449 0 0 0 .4 1.032l-.245.148.241-.153.1.057a3.517 3.517 0 0 0 .686.038c.268 0 8.076-.183 9.938-.32l.02.285-.13-.255.589-.3.13-.032.27.09a4.854 4.854 0 0 1 .789.694l.343.385.117.162a.426.426 0 0 1 .082.235.42.42 0 0 1 -.2.346 1.66 1.66 0 0 1 -.641.195l-.033-.283.27.092c-2.674 7.793-9.708 10.2-11.9 10.97l-.35-.143-.228-.456-.012-.23.163-.163.1.266.255-.128.228.456-.255.128-.093-.27c2.185-.761 8.975-3.1 11.551-10.615l.238-.191.285-.06.1-.042.042.06-.058-.042.017-.018.042.06-.058-.042.15.11h-.183l.033-.11.15.11h.008l-.176.085-.015-.085h.191l-.176.085-.182-.236a7.679 7.679 0 0 0 -.579-.589l-.258-.211-.073-.047.052-.163v.17l-.052-.007.052-.163v-.115l.132.253-.59.3-.11.032c-1.91.138-9.676.321-9.979.321a3.924 3.924 0 0 1 -.814-.053.683.683 0 0 1 -.456-.308v-.005a2.989 2.989 0 0 1 -.476-1.256l.283-.035.158.236-.291.231-.095.188a2.059 2.059 0 0 0 .451 1.122 2.129 2.129 0 0 0 .4.415l.255.126v.286l-.115-.261.551-.245.032-.013a6.514 6.514 0 0 1 .992-.133c1.509-.138 4.676-.32 9.431-.594l.24.108.052.256a16.5 16.5 0 0 1 -4.071 6.814 20 20 0 0 1 -7.1 4.348l-.1-.265.255-.128z" transform="translate(-46.293 -166.23)"/><path d="m306 256.837c.843.436 3.047 1.723 3.047 3.27 0 .574-.273.793-.546.793-.42 0-.594-.336-.892-.989a8.954 8.954 0 0 0 -2.028-2.738z" transform="translate(-86.795 -167.062)"/><path d="m306.108 256.916.077-.148a10 10 0 0 1 1.872 1.242 3.1 3.1 0 0 1 1.266 2.176 1.124 1.124 0 0 1 -.208.718.644.644 0 0 1 -.5.241.761.761 0 0 1 -.623-.311 3.853 3.853 0 0 1 -.421-.774l.152-.07-.15.073a8.786 8.786 0 0 0 -1.99-2.686l-.147-.132.573-.46.085-.068.1.05-.077.148.1.13-.42.336-.1-.13.11-.123a9.138 9.138 0 0 1 2.068 2.789 3.5 3.5 0 0 0 .378.7.423.423 0 0 0 .363.188c.172-.008.365-.1.38-.626a2.792 2.792 0 0 0 -1.151-1.925 9.629 9.629 0 0 0 -1.807-1.2l.077-.148.1.13z" transform="translate(-86.898 -167.141)"/><path d="m307.9 256.385c1.882.813 3.1 2.021 3.1 3.014 0 .395-.175.793-.545.793-.4 0-.52-.258-.868-.913a6.769 6.769 0 0 0 -2.078-2.536z" transform="translate(-85.519 -167.362)"/><path d="m308 256.463.067-.153c1.9.833 3.175 2.038 3.2 3.167a1.227 1.227 0 0 1 -.158.631.639.639 0 0 1 -.553.328.709.709 0 0 1 -.579-.27 4.406 4.406 0 0 1 -.435-.731 6.606 6.606 0 0 0 -2.03-2.481l-.165-.12.546-.495.08-.072.1.042-.067.153.112.123-.395.358-.112-.123.1-.135a6.945 6.945 0 0 1 2.128 2.594 4.371 4.371 0 0 0 .395.671.366.366 0 0 0 .325.152l.268-.168a.913.913 0 0 0 .11-.458c.02-.856-1.137-2.068-3-2.861l.067-.153.112.123z" transform="translate(-85.625 -167.44)"/><path d="m333.054 259.262c0 1.9-1.88 2.456-2.992 2.456a2.666 2.666 0 0 1 -2.946-2.5c0-1.507 1.362-2.418 2.994-2.418s2.944.951 2.944 2.458m-5.2 0c0 1.127 1.162 1.743 2.225 1.743a2.038 2.038 0 0 0 2.228-1.783c0-1.131-1.186-1.723-2.228-1.723-.987 0-2.225.553-2.225 1.763" transform="translate(-72.474 -167.084)"/><path d="m333.12 259.328h.167a2.34 2.34 0 0 1 -1.159 2.083 3.945 3.945 0 0 1 -2 .54 3.3 3.3 0 0 1 -2.281-.809 2.511 2.511 0 0 1 -.831-1.853 2.341 2.341 0 0 1 .951-1.907 3.635 3.635 0 0 1 2.21-.678 3.48 3.48 0 0 1 2.188.7 2.4 2.4 0 0 1 .923 1.923h-.333c0-1.4-1.2-2.283-2.777-2.291-1.58.008-2.824.863-2.827 2.251a2.5 2.5 0 0 0 2.779 2.329 3.622 3.622 0 0 0 1.825-.49 2 2 0 0 0 1-1.8zm-5.2 0h.166a1.38 1.38 0 0 0 .643 1.157 2.53 2.53 0 0 0 1.415.42 2.387 2.387 0 0 0 1.457-.471 1.448 1.448 0 0 0 .6-1.146 1.355 1.355 0 0 0 -.651-1.147 2.626 2.626 0 0 0 -2.8-.01 1.394 1.394 0 0 0 -.668 1.2h-.333a1.728 1.728 0 0 1 .816-1.474 2.961 2.961 0 0 1 3.174.01 1.7 1.7 0 0 1 .8 1.424 2.2 2.2 0 0 1 -2.395 1.95 2.875 2.875 0 0 1 -1.607-.478 1.719 1.719 0 0 1 -.784-1.432z" transform="translate(-72.54 -167.15)"/><path d="m375.346 256.594c1.162.733 2.794 2.1 2.794 3.347 0 .573-.3.831-.594.831-.445 0-.566-.336-.839-1.089a7.532 7.532 0 0 0 -1.807-2.774z" transform="translate(-40.69 -167.223)"/><path d="m375.449 256.674.088-.14c1.174.754 2.847 2.1 2.872 3.487a1.141 1.141 0 0 1 -.223.736.691.691 0 0 1 -.538.261.7.7 0 0 1 -.623-.335 4.263 4.263 0 0 1 -.373-.863 7.371 7.371 0 0 0 -1.768-2.714l-.14-.14.608-.428.092-.065.093.06-.088.14.095.137-.445.315-.1-.137.117-.116a7.663 7.663 0 0 1 1.847 2.837 4.093 4.093 0 0 0 .336.788.36.36 0 0 0 .346.188c.191-.005.416-.145.428-.664.023-1.107-1.565-2.494-2.716-3.205l.088-.142.095.137z" transform="translate(-40.793 -167.303)"/><path d="m377.252 256.487c1.88 1.227 2.6 2.476 2.6 3.247 0 .436-.2.912-.594.912-.445 0-.544-.358-.791-1.031a6.6 6.6 0 0 0 -1.657-2.811z" transform="translate(-39.422 -167.295)"/><path d="m377.353 256.568.092-.14c1.9 1.249 2.664 2.516 2.673 3.387a1.456 1.456 0 0 1 -.17.7.683.683 0 0 1 -1.2.037 4.362 4.362 0 0 1 -.338-.8 6.416 6.416 0 0 0 -1.622-2.752l-.133-.138.6-.43.093-.067.095.062-.092.14.1.135-.445.318-.1-.135.12-.115a6.78 6.78 0 0 1 1.7 2.872l-.158.053.156-.057a4.348 4.348 0 0 0 .3.734.337.337 0 0 0 .33.186l.3-.208a1.145 1.145 0 0 0 .127-.538c.008-.671-.666-1.9-2.523-3.107l.092-.14.1.135z" transform="translate(-39.523 -167.375)"/><path d="m251.22 205.624s-8.805 74.073-9.257 76.8a25.527 25.527 0 0 1 -2.877 8.314 7.466 7.466 0 0 1 -7.6 3.194 9.17 9.17 0 0 1 -3.414-1.534c-.251-.173-2.826-2.081-2.816-2.095l-9.774 13.847c.411.376.773.791 1.219 1.141q6.08 4.741 15.779 4.742 7.566 0 12.474-2.558a22.911 22.911 0 0 0 7.889-6.556 28.885 28.885 0 0 0 4.478-8.9 88.2 88.2 0 0 0 2.345-9.488l9.465-76.9z" transform="translate(-146.73 -201.126)"/></g></svg>