<?xml version="1.0" encoding="utf-8"?>
<!-- Generator: Adobe Illustrator 24.0.0, SVG Export Plug-In . SVG Version: 6.00 Build 0)  -->
<svg version="1.1" id="Capa_1" xmlns="http://www.w3.org/2000/svg" xmlns:xlink="http://www.w3.org/1999/xlink" x="0px" y="0px"
	 viewBox="0 0 54 54" style="enable-background:new 0 0 54 54;" xml:space="preserve">
<style type="text/css">
	.st0{fill:#FFFFFF;stroke:#FF5B9C;stroke-width:2;}
	.st1{fill:#FF5B9C;}
</style>
<g>
	<path class="st0" d="M48.9,27L48.9,27c0,12.1-9.8,21.9-21.9,21.9l0,0C14.9,48.9,5.1,39.1,5.1,27l0,0C5.1,14.9,14.9,5.1,27,5.1l0,0
		C39.1,5.1,48.9,14.9,48.9,27z"/>
	<path class="st0" d="M27,49.7C14.5,49.7,4.3,39.5,4.3,27S14.5,4.3,27,4.3S49.7,14.5,49.7,27S39.5,49.7,27,49.7z M27,5.9
		C15.4,5.9,5.9,15.4,5.9,27S15.4,48.1,27,48.1S48.1,38.6,48.1,27S38.6,5.9,27,5.9z"/>
</g>
<path class="st1" d="M34.4,29l-5.8-8.4l-0.3-0.4L28,19.9c-0.4-0.3-1-0.3-1.5-0.2c-0.5,0.1-0.9,0.4-1.2,0.8L19.5,29
	c-0.2,0.3-0.3,0.6-0.3,0.9l0,0.2l0,0.1c0.1,1,0.9,1.8,1.8,1.8c0,0,0.1,0,0.1,0h11.7l0.1,0c0.3,0,0.6-0.1,0.9-0.3l0.2-0.1
	C34.8,30.9,35,29.8,34.4,29z M21.2,29.2L21.2,29.2L21.2,29.2C21.1,29.2,21.1,29.2,21.2,29.2z"/>
</svg>
