<?xml version="1.0" encoding="utf-8"?>
<!-- Generator: Adobe Illustrator 24.0.0, SVG Export Plug-In . SVG Version: 6.00 Build 0)  -->
<svg version="1.1" id="twitter" xmlns="http://www.w3.org/2000/svg" xmlns:xlink="http://www.w3.org/1999/xlink" x="0px" y="0px"
	 viewBox="0 0 42.3 34.4" style="enable-background:new 0 0 42.3 34.4;" xml:space="preserve">
<style type="text/css">
	.st0{fill:#fff;}
</style>
<g id="グループ_9871">
	<path id="パス_20078" class="st0" d="M42.3,4.1c-1.6,0.7-3.3,1.2-5,1.4c1.8-1.1,3.2-2.8,3.8-4.8c-1.7,1-3.6,1.7-5.5,2.1
		c-3.3-3.5-8.8-3.7-12.3-0.4c-1.8,1.6-2.7,3.9-2.7,6.3c0,0.7,0.1,1.3,0.2,2C13.8,10.3,7.3,7,2.9,1.6c-2.3,4-1.2,9,2.7,11.6
		c-1.4,0-2.7-0.4-3.9-1.1v0.1c0,4.1,2.9,7.7,7,8.5C7.9,20.9,7.1,21,6.4,21c-0.6,0-1.1,0-1.6-0.1c1.1,3.5,4.4,6,8.1,6
		C9.8,29.3,6,30.6,2.1,30.6c-0.7,0-1.4,0-2.1-0.1c4,2.6,8.6,3.9,13.3,3.9c16,0,24.7-13.2,24.7-24.7c0-0.4,0-0.8,0-1.1
		C39.7,7.4,41.2,5.8,42.3,4.1z"/>
</g>
</svg>
