<?xml version="1.0" encoding="utf-8"?>
<!-- Generator: Adobe Illustrator 24.0.0, SVG Export Plug-In . SVG Version: 6.00 Build 0)  -->
<svg version="1.1" id="facebook-app-symbol" xmlns="http://www.w3.org/2000/svg" xmlns:xlink="http://www.w3.org/1999/xlink"
	 x="0px" y="0px" viewBox="0 0 46.9 37.6" style="enable-background:new 0 0 46.9 37.6;" xml:space="preserve">
<style type="text/css">
	.st0{fill:#221815;}
</style>
<g id="グループ_9871">
	<path id="パス_20078" class="st0" d="M44.9,5.8c-1.6,0.7-3.3,1.2-5,1.4c1.8-1.1,3.2-2.8,3.8-4.8c-1.7,1-3.6,1.7-5.5,2.1
		C34.9,1,29.4,0.8,25.9,4.1c-1.8,1.6-2.7,3.9-2.7,6.3c0,0.7,0.1,1.3,0.2,2C16.4,12,9.9,8.7,5.5,3.3c-2.3,4-1.2,9,2.7,11.6
		c-1.4,0-2.7-0.4-3.9-1.1v0.1c0,4.1,2.9,7.7,7,8.5c-0.8,0.2-1.6,0.3-2.3,0.3c-0.6,0-1.1,0-1.6-0.1c1.1,3.5,4.4,6,8.1,6
		c-3.1,2.4-6.9,3.7-10.8,3.7c-0.7,0-1.4,0-2.1-0.1c4,2.6,8.6,3.9,13.3,3.9c16,0,24.7-13.2,24.7-24.7c0-0.4,0-0.8,0-1.1
		C42.3,9.1,43.8,7.5,44.9,5.8z"/>
</g>
</svg>
